PathFileType	4	(X/Y/Z)	/Users/niels/Desktop/University/Third Semester/Perception and Action/Exam/Gymnastics Motion Tracking/Code for Gym Tracking/Analyzed Data/Webcam_Backflip/id4_5_pure_Sports2D/id4_5_pure_Sports2D_px_person00.trc
DataRate	CameraRate	NumFrames	NumMarkers	Units	OrigDataRate	OrigDataStartFrame	OrigNumFrames
29.81132075471698	29.81132075471698	11	22	m	29.81132075471698	139	159
Frame#	Time	Hip			RHip			RKnee			RAnkle			RBigToe			RSmallToe			RHeel			LHip			LKnee			LAnkle			LBigToe			LSmallToe			LHeel			Neck			Head			Nose			RShoulder			RElbow			RWrist			LShoulder			LElbow			LWrist		
		X1	Y1	Z1	X2	Y2	Z2	X3	Y3	Z3	X4	Y4	Z4	X5	Y5	Z5	X6	Y6	Z6	X7	Y7	Z7	X8	Y8	Z8	X9	Y9	Z9	X10	Y10	Z10	X11	Y11	Z11	X12	Y12	Z12	X13	Y13	Z13	X14	Y14	Z14	X15	Y15	Z15	X16	Y16	Z16	X17	Y17	Z17	X18	Y18	Z18	X19	Y19	Z19	X20	Y20	Z20	X21	Y21	Z21	X22	Y22	Z22
139	4.662658227848101	0.7009065949555163	-0.6054728033812968	0.0	0.6916780630534909	-0.6029628049886108	0.0	0.715764560410716	-0.7077161436280933	0.0	0.6889852599874384	-0.8105380897297819	0.0	0.7181612953770317	-0.8288179624345816	0.0	0.7084092501261327	-0.8292729756349709	0.0	0.679287300835772	-0.8205275647410165	0.0	0.7117564857330031	-0.6023418549947808	0.0	0.7200503347157149	-0.7078682045082921	0.0	0.6934872619604832	-0.8085553250635735	0.0	0.7257609478302636	-0.8252624744640609	0.0	0.7202673240498432	-0.8225844097390934	0.0	0.6823024789998284	-0.8167987643714826	0.0	0.7245561131152545	-0.4506923788891914	0.0	0.7382034064322595	-0.38781137771107904	0.0	0.7491029487070191	-0.4194067840157278	0.0	0.7020455758402043	-0.4738398221100541	0.0	0.6982947553928412	-0.5519780848277058	0.0	0.7203939249807727	-0.6183462079229516	0.0	0.7363237586537891	-0.473922697922241	0.0	0.7380673872177602	-0.546432867697476	0.0	0.7542064660256952	-0.610775423382004	0.0
140	4.69620253164557	0.7004311898031652	-0.6005403570472603	0.0	0.6914125216355425	-0.5981995666745741	0.0	0.7195154749014211	-0.7026566126799493	0.0	0.68939031229069	-0.8058889276761162	0.0	0.7204609397095173	-0.8256990006429068	0.0	0.7102095168575034	-0.8260187242945495	0.0	0.6787707024637063	-0.8165979688861295	0.0	0.7108681541529484	-0.5973738938371159	0.0	0.7232690522798777	-0.7028532827440324	0.0	0.6938708962071838	-0.8039108238663005	0.0	0.7281780082673248	-0.8222199307704691	0.0	0.7217664173328917	-0.8193534090461732	0.0	0.682347688403209	-0.8129642160974208	0.0	0.7260799505657856	-0.4470499692439195	0.0	0.7399219137486035	-0.38430169991043	0.0	0.7500127870760982	-0.4159847989096693	0.0	0.7030532106761298	-0.4696485273474673	0.0	0.6994540609768326	-0.5478106569923527	0.0	0.7236067379231462	-0.6136240321565739	0.0	0.7385574950756341	-0.4697343962813048	0.0	0.7408529250407472	-0.5422527424805563	0.0	0.7596953240883837	-0.6059099631622112	0.0
141	4.729746835443038	0.700458465938571	-0.5927262590822537	0.0	0.6917998254493694	-0.5907764036113048	0.0	0.722865567853603	-0.6950031992495116	0.0	0.689966392539221	-0.798598959060261	0.0	0.7230788603995884	-0.8203671845963049	0.0	0.7124263753813037	-0.8206556969045948	0.0	0.6784490499333998	-0.8104812502664831	0.0	0.7103245472314972	-0.5897054289894386	0.0	0.7262342665357487	-0.6952239175952597	0.0	0.6943987055094419	-0.7965399098068661	0.0	0.7309718233450234	-0.8169771885580555	0.0	0.7238201302175663	-0.8139147006487498	0.0	0.6825700933519531	-0.8069022734570781	0.0	0.7273153829846358	-0.44055654239731035	0.0	0.7418876050434656	-0.3774109766376237	0.0	0.7508441524932578	-0.4096199593510402	0.0	0.7041058259691436	-0.4623912035918465	0.0	0.6997781861479982	-0.5402980694401003	0.0	0.7258867325789856	-0.6057259449525048	0.0	0.7400835170262395	-0.4623539698693744	0.0	0.7419867815704178	-0.5345198725722945	0.0	0.7639534893777309	-0.5969868709774196	0.0
142	4.763291139240506	0.7011138848534305	-0.5829571040567098	0.0	0.6928750086263599	-0.5815902962035367	0.0	0.725591338831087	-0.6856617600531674	0.0	0.6907219607675598	-0.7893950102778415	0.0	0.7255701562852823	-0.8132951906067492	0.0	0.7146947972821959	-0.813628693538325	0.0	0.6784735932638836	-0.8026868356288314	0.0	0.7102907830081387	-0.5802768804940208	0.0	0.7286909751391166	-0.6858593618316399	0.0	0.6950720249624776	-0.7873071739310816	0.0	0.7334244763964046	-0.8100369320541142	0.0	0.7259225439580173	-0.8068188967319178	0.0	0.683020513377368	-0.7991884636497836	0.0	0.728231729171598	-0.43208686820942294	0.0	0.7438824285465193	-0.3679769486083922	0.0	0.7514632723691511	-0.4010511591476292	0.0	0.7050925641266744	-0.45299949843999704	0.0	0.6995053512410289	-0.5303875698449528	0.0	0.7272055394198917	-0.5955523511290023	0.0	0.7410718893022582	-0.45282993966195745	0.0	0.7419213619716694	-0.5243176476089618	0.0	0.7669619584807962	-0.5851488596204433	0.0
143	4.796835443037974	0.7023355129865461	-0.572274083024375	0.0	0.6944221301239997	-0.5715817609282386	0.0	0.7276163970827204	-0.6755642402110824	0.0	0.6916504540194809	-0.7792641655377974	0.0	0.727692333017022	-0.8052383560261055	0.0	0.7167759452226327	-0.8056698176554004	0.0	0.678984963828332	-0.7940296324738263	0.0	0.7107050600979062	-0.5700755916330162	0.0	0.7303709565620338	-0.6757036964167707	0.0	0.6958210230337564	-0.7773106993146771	0.0	0.7351256642269602	-0.8021606768736975	0.0	0.7276897298900508	-0.7988633780354572	0.0	0.6836591249338587	-0.7906515144530781	0.0	0.7288551342994098	-0.42256591534803684	0.0	0.7456694733956931	-0.35707270434614824	0.0	0.7518318551188041	-0.39113560710933176	0.0	0.705899145147874	-0.44252297759231113	0.0	0.6988821680734317	-0.5191759370897351	0.0	0.7276527731011864	-0.5841511623825513	0.0	0.7417407891552517	-0.4423360944094373	0.0	0.7411869584569164	-0.5128484873391795	0.0	0.7688624526036572	-0.5717767480727598	0.0
144	4.830379746835443	0.7039504791000796	-0.561744091227296	0.0	0.6961096544321126	-0.5616399253803215	0.0	0.7289242557624455	-0.6656053504408197	0.0	0.6927642370096273	-0.769312792597829	0.0	0.7294157559456678	-0.7970876946473078	0.0	0.7185597245783045	-0.7976506917680195	0.0	0.6800975486448718	-0.7854513131504773	0.0	0.7114608269526178	-0.5600425366626484	0.0	0.7311365362165515	-0.6656810119694695	0.0	0.6965969541624609	-0.7676625856231329	0.0	0.7360880694436854	-0.7942004591009432	0.0	0.7289938761802118	-0.7909055959039056	0.0	0.6844733996054927	-0.7821706864651543	0.0	0.7292555075937683	-0.41287575575532276	0.0	0.7470300613730063	-0.3458616733897795	0.0	0.7520483053590727	-0.3807760101350633	0.0	0.7064794818968813	-0.4319810592810319	0.0	0.6980924697475275	-0.5077808525466404	0.0	0.7274305276250208	-0.5726153151297225	0.0	0.7423250090770752	-0.43198061703674184	0.0	0.7402658361441137	-0.5012758983677102	0.0	0.7699128954021706	-0.5582344019814005	0.0
145	4.863924050632911	0.7057627743057105	-0.5523351594237637	0.0	0.6976583794335726	-0.5525553812983676	0.0	0.7294903325004195	-0.6566017508915472	0.0	0.6941202506313122	-0.7605370018952984	0.0	0.7308601679016344	-0.7896900252451597	0.0	0.7200609034559476	-0.7904161137377045	0.0	0.6818697787971203	-0.7778476744618886	0.0	0.7124978512943304	-0.5509919982775571	0.0	0.7310553293377833	-0.6566255028594165	0.0	0.6974437130839872	-0.7592651466088383	0.0	0.7366476143326102	-0.7869184667021801	0.0	0.7299917081483501	-0.783686305517923	0.0	0.6855113270893797	-0.7745400859966782	0.0	0.7295006712636529	-0.40388101222179873	0.0	0.7478216039656751	-0.3354098196341918	0.0	0.7522638914091156	-0.37089069649056966	0.0	0.70685795970877	-0.4222821626669542	0.0	0.6972716484198976	-0.49720725279844563	0.0	0.7268243759990708	-0.5619685592816104	0.0	0.7430189963486616	-0.42267925681978774	0.0	0.7394610592372096	-0.49062642203552526	0.0	0.7704095750147755	-0.5456729815415452	0.0
146	4.897468354430379	0.7075985693163281	-0.5447884713285018	0.0	0.6989461622066342	-0.5450029144695072	0.0	0.7292997078340713	-0.6492540553916418	0.0	0.6958161375167651	-0.7536988877282409	0.0	0.7323125723134685	-0.7837169550010981	0.0	0.7214863386671899	-0.7846431898475412	0.0	0.6842862570627902	-0.7719518088036327	0.0	0.7137712159173344	-0.5435647306259642	0.0	0.7303384609182583	-0.6492409250960199	0.0	0.698427672322428	-0.7527197853206196	0.0	0.7372725958063501	-0.7808830813841724	0.0	0.7310291253422905	-0.7777394708068124	0.0	0.686778355107791	-0.7684339095079049	0.0	0.7296503027926677	-0.39636021932526144	0.0	0.7479959122260542	-0.3265793585137052	0.0	0.7525502103141853	-0.36235578469846047	0.0	0.7070736417065994	-0.41418882394305423	0.0	0.6965480946431385	-0.48830085830333686	0.0	0.7261339906744162	-0.5530901713724785	0.0	0.7439302227037314	-0.4150901771970574	0.0	0.7389051896543963	-0.48171254837229993	0.0	0.7706082937994151	-0.5349334104366525	0.0
147	4.931012658227848	0.7093479654719604	-0.539570339908805	0.0	0.7000188964088613	-0.5395038058598081	0.0	0.72840313240218	-0.6441035589952472	0.0	0.6979484134993308	-0.7492919096591704	0.0	0.73415666839331	-0.7796306875123807	0.0	0.7231749088233815	-0.7807800943873399	0.0	0.6872700997502709	-0.7682311104781981	0.0	0.7152750701571762	-0.5382114839710601	0.0	0.7292394954534521	-0.6440662017790102	0.0	0.69953688934103	-0.7483370609541309	0.0	0.7383415442121579	-0.7764622811426584	0.0	0.7324500003328521	-0.7733893499415792	0.0	0.6881828309681092	-0.7643482349260342	0.0	0.7297834284481202	-0.3908788544232496	0.0	0.7475964344072978	-0.3200151739563897	0.0	0.7528638987530963	-0.3559168971935988	0.0	0.7071543401684467	-0.40830096601605415	0.0	0.6960494481142455	-0.4817747328841155	0.0	0.7255949443279492	-0.5466851550428424	0.0	0.7450852291310116	-0.4096162640470101	0.0	0.7386942894020604	-0.4750811098895209	0.0	0.7707261753379525	-0.5265572085085951	0.0
148	4.964556962025316	0.7109934114469953	-0.5369470472801104	0.0	0.7009902391130648	-0.5364194002290259	0.0	0.7269442172721569	-0.6414941942898263	0.0	0.7005106960464894	-0.74749482005115	0.0	0.7365245984969954	-0.7777088580341405	0.0	0.7252684657779771	-0.7790616990883751	0.0	0.6906734122223106	-0.7668510806816242	0.0	0.717075759375588	-0.5352245611920694	0.0	0.7279791422363038	-0.6414440932808093	0.0	0.7006703975096732	-0.7461845996379924	0.0	0.7398982427898279	-0.7738777149298496	0.0	0.7343555073793594	-0.7708133749147239	0.0	0.6895796010213482	-0.7625269204807267	0.0	0.7299824265921738	-0.3877643302213813	0.0	0.7467629534779945	-0.31613238761822526	0.0	0.7531227495285969	-0.35210836509741705	0.0	0.7071241555529834	-0.4050509630828173	0.0	0.6958618283155842	-0.4781665403677669	0.0	0.7253300004663866	-0.5432415883058304	0.0	0.7464237792472778	-0.4064848911115124	0.0	0.738933146488027	-0.47102473294614317	0.0	0.770996454805402	-0.5209035803788722	0.0
149	4.998101265822784	0.7125598551086967	-0.537068987265922	0.0	0.7019425155436805	-0.535970124935157	0.0	0.7251413789727481	-0.6415646429594299	0.0	0.7032712578219782	-0.7482041567477695	0.0	0.7389826480951527	-0.7780434222527923	0.0	0.7274204241500727	-0.7795313543743974	0.0	0.6942098050119498	-0.7677559894267576	0.0	0.7192057972171645	-0.5347929260585382	0.0	0.7267003700240401	-0.6415176849396559	0.0	0.7016826525905342	-0.7462057815475704	0.0	0.7415532654411101	-0.7732809095341883	0.0	0.7364480787797412	-0.7701309947893415	0.0	0.6908189084675849	-0.7629808865268676	0.0	0.7302882977714599	-0.38714883397736816	0.0	0.7456886263897629	-0.31508439110305647	0.0	0.7532505914604718	-0.35118712654473827	0.0	0.7070052536286825	-0.40468102356709607	0.0	0.6959863693772792	-0.47772987103862363	0.0	0.7253583351048297	-0.5429689644577214	0.0	0.7477912416550718	-0.4058272397232803	0.0	0.7396856351256661	-0.46966234864604234	0.0	0.7716576993897948	-0.5182537242659763	0.0
